# xmcd
#
# Track frame offsets: 
#        150
#        17225
#        31141
#        46613
#        62568
#
# Disc length: 1069 seconds
#
# Revision: 2
# Processed by: cddbd v1.5.2PL0 Copyright (c) Steve Scherf et al.
# Submitted via: ExactAudioCopy v0.99pb4
#
DISCID=31042b05
DTITLE=Righteous - Feel the Bite
DYEAR=1997
DGENRE=Blues
TTITLE0=Night Life
TTITLE1=Lenwood
TTITLE2=Catfish
TTITLE3=All About the Jam
TTITLE4=Blues 101
EXTD=Canadian 2-CD EP\n YEAR: 1997
EXTT0=
EXTT1=
EXTT2=
EXTT3=
EXTT4=
PLAYORDER=
